<?xml version="1.0" encoding="UTF-8"?>
<svg width="256px" height="256px" viewBox="0 0 256 256" version="1.1" xmlns="http://www.w3.org/2000/svg">
    <g stroke="none" stroke-width="1" fill="none" fill-rule="evenodd">
        <path d="M128,24 C69.813,24 22,71.813 22,130 C22,176.563 52.688,215.75 94.688,230.188 C100.188,231.313 102.063,227.813 102.063,224.813 C102.063,222.063 101.938,214.438 101.938,205.313 C73,211.313 66.25,193.063 66.25,193.063 C60.875,180.188 53.188,176.688 53.188,176.688 C42.813,169.938 54,170.063 54,170.063 C65.563,170.813 71.813,181.438 71.813,181.438 C82,197.438 97.25,193.563 102.313,190.688 C103.313,183.813 106.063,179.063 109.063,176.563 C85.875,174.063 61.5,164.813 61.5,124.313 C61.5,112.313 66.25,102.563 72,94.938 C70.875,92.063 66.75,80.813 73.125,66.063 C73.125,66.063 82.313,63.063 101.938,76.313 C110.188,73.938 119.063,72.813 128,72.813 C136.938,72.813 145.813,73.938 154.063,76.313 C173.688,63.063 182.875,66.063 182.875,66.063 C189.25,80.813 185.125,92.063 184,94.938 C189.75,102.563 194.5,112.313 194.5,124.313 C194.5,164.813 170.125,173.938 146.938,176.438 C150.688,179.563 154.063,185.688 154.063,195.188 C154.063,208.813 153.938,221.063 153.938,224.813 C153.938,227.813 155.813,231.313 161.313,230.188 C203.313,215.75 234,176.563 234,130 C234,71.813 186.188,24 128,24" fill="#1B1F23"></path>
    </g>
</svg>
